<mxfile host="app.diagrams.net" modified="2023-09-20T23:58:09.244Z" agent="Mozilla/5.0 (Windows NT 10.0; Win64; x64) AppleWebKit/537.36 (KHTML, like Gecko) Chrome/116.0.0.0 Safari/537.36" etag="HglJE_Hm3-yMvD0MmLga" version="21.4.0" type="github">
  <diagram name="Page-1" id="D4AOqYdzWSN9Js0rBEvm">
    <mxGraphModel dx="762" dy="880" grid="1" gridSize="10" guides="1" tooltips="1" connect="1" arrows="1" fold="1" page="1" pageScale="1" pageWidth="827" pageHeight="1169" math="0" shadow="0">
      <root>
        <mxCell id="0" />
        <mxCell id="1" parent="0" />
        <mxCell id="wt4KJGDSctlL8dxcOWno-44" style="edgeStyle=orthogonalEdgeStyle;curved=1;rounded=0;orthogonalLoop=1;jettySize=auto;html=1;exitX=1;exitY=0.5;exitDx=0;exitDy=0;entryX=0.5;entryY=0;entryDx=0;entryDy=0;endArrow=none;endFill=0;" edge="1" parent="1" source="wt4KJGDSctlL8dxcOWno-1" target="wt4KJGDSctlL8dxcOWno-5">
          <mxGeometry relative="1" as="geometry" />
        </mxCell>
        <mxCell id="wt4KJGDSctlL8dxcOWno-58" style="edgeStyle=orthogonalEdgeStyle;curved=1;rounded=0;orthogonalLoop=1;jettySize=auto;html=1;exitX=0.5;exitY=0;exitDx=0;exitDy=0;entryX=0.5;entryY=1;entryDx=0;entryDy=0;endArrow=none;endFill=0;" edge="1" parent="1" source="wt4KJGDSctlL8dxcOWno-1" target="wt4KJGDSctlL8dxcOWno-6">
          <mxGeometry relative="1" as="geometry">
            <Array as="points">
              <mxPoint x="1850" y="160" />
              <mxPoint x="2060" y="160" />
              <mxPoint x="2060" y="440" />
              <mxPoint x="1850" y="440" />
            </Array>
          </mxGeometry>
        </mxCell>
        <mxCell id="wt4KJGDSctlL8dxcOWno-1" value="4" style="ellipse;whiteSpace=wrap;html=1;" vertex="1" parent="1">
          <mxGeometry x="1790" y="180" width="120" height="80" as="geometry" />
        </mxCell>
        <mxCell id="wt4KJGDSctlL8dxcOWno-43" style="edgeStyle=orthogonalEdgeStyle;curved=1;rounded=0;orthogonalLoop=1;jettySize=auto;html=1;exitX=0.5;exitY=0;exitDx=0;exitDy=0;entryX=0;entryY=0.5;entryDx=0;entryDy=0;endArrow=none;endFill=0;" edge="1" parent="1" source="wt4KJGDSctlL8dxcOWno-2" target="wt4KJGDSctlL8dxcOWno-1">
          <mxGeometry relative="1" as="geometry" />
        </mxCell>
        <mxCell id="wt4KJGDSctlL8dxcOWno-56" style="edgeStyle=orthogonalEdgeStyle;curved=1;rounded=0;orthogonalLoop=1;jettySize=auto;html=1;exitX=1;exitY=0.5;exitDx=0;exitDy=0;entryX=0;entryY=0.5;entryDx=0;entryDy=0;endArrow=none;endFill=0;" edge="1" parent="1" source="wt4KJGDSctlL8dxcOWno-2" target="wt4KJGDSctlL8dxcOWno-5">
          <mxGeometry relative="1" as="geometry" />
        </mxCell>
        <mxCell id="wt4KJGDSctlL8dxcOWno-2" value="3" style="ellipse;whiteSpace=wrap;html=1;" vertex="1" parent="1">
          <mxGeometry x="1670" y="260" width="120" height="80" as="geometry" />
        </mxCell>
        <mxCell id="wt4KJGDSctlL8dxcOWno-45" style="edgeStyle=orthogonalEdgeStyle;curved=1;rounded=0;orthogonalLoop=1;jettySize=auto;html=1;exitX=0.5;exitY=1;exitDx=0;exitDy=0;entryX=1;entryY=0.5;entryDx=0;entryDy=0;endArrow=none;endFill=0;" edge="1" parent="1" source="wt4KJGDSctlL8dxcOWno-5" target="wt4KJGDSctlL8dxcOWno-6">
          <mxGeometry relative="1" as="geometry" />
        </mxCell>
        <mxCell id="wt4KJGDSctlL8dxcOWno-5" value="1" style="ellipse;whiteSpace=wrap;html=1;" vertex="1" parent="1">
          <mxGeometry x="1910" y="260" width="120" height="80" as="geometry" />
        </mxCell>
        <mxCell id="wt4KJGDSctlL8dxcOWno-46" style="edgeStyle=orthogonalEdgeStyle;curved=1;rounded=0;orthogonalLoop=1;jettySize=auto;html=1;exitX=0;exitY=0.5;exitDx=0;exitDy=0;entryX=0.5;entryY=1;entryDx=0;entryDy=0;endArrow=none;endFill=0;" edge="1" parent="1" source="wt4KJGDSctlL8dxcOWno-6" target="wt4KJGDSctlL8dxcOWno-2">
          <mxGeometry relative="1" as="geometry" />
        </mxCell>
        <mxCell id="wt4KJGDSctlL8dxcOWno-6" value="2" style="ellipse;whiteSpace=wrap;html=1;" vertex="1" parent="1">
          <mxGeometry x="1790" y="340" width="120" height="80" as="geometry" />
        </mxCell>
        <mxCell id="wt4KJGDSctlL8dxcOWno-47" style="edgeStyle=orthogonalEdgeStyle;curved=1;rounded=0;orthogonalLoop=1;jettySize=auto;html=1;exitX=1;exitY=0.5;exitDx=0;exitDy=0;entryX=0.5;entryY=0;entryDx=0;entryDy=0;endArrow=none;endFill=0;" edge="1" parent="1" source="wt4KJGDSctlL8dxcOWno-7" target="wt4KJGDSctlL8dxcOWno-9">
          <mxGeometry relative="1" as="geometry" />
        </mxCell>
        <mxCell id="wt4KJGDSctlL8dxcOWno-7" value="8" style="ellipse;whiteSpace=wrap;html=1;" vertex="1" parent="1">
          <mxGeometry x="1550" y="370" width="120" height="80" as="geometry" />
        </mxCell>
        <mxCell id="wt4KJGDSctlL8dxcOWno-50" style="edgeStyle=orthogonalEdgeStyle;curved=1;rounded=0;orthogonalLoop=1;jettySize=auto;html=1;exitX=0.5;exitY=0;exitDx=0;exitDy=0;entryX=0;entryY=0.5;entryDx=0;entryDy=0;endArrow=none;endFill=0;" edge="1" parent="1" source="wt4KJGDSctlL8dxcOWno-8" target="wt4KJGDSctlL8dxcOWno-7">
          <mxGeometry relative="1" as="geometry" />
        </mxCell>
        <mxCell id="wt4KJGDSctlL8dxcOWno-54" style="edgeStyle=orthogonalEdgeStyle;curved=1;rounded=0;orthogonalLoop=1;jettySize=auto;html=1;exitX=1;exitY=0.5;exitDx=0;exitDy=0;entryX=0;entryY=0.5;entryDx=0;entryDy=0;endArrow=none;endFill=0;" edge="1" parent="1" source="wt4KJGDSctlL8dxcOWno-8" target="wt4KJGDSctlL8dxcOWno-9">
          <mxGeometry relative="1" as="geometry" />
        </mxCell>
        <mxCell id="wt4KJGDSctlL8dxcOWno-59" style="edgeStyle=orthogonalEdgeStyle;curved=1;rounded=0;orthogonalLoop=1;jettySize=auto;html=1;exitX=0;exitY=0.5;exitDx=0;exitDy=0;entryX=1;entryY=0.5;entryDx=0;entryDy=0;endArrow=none;endFill=0;" edge="1" parent="1" source="wt4KJGDSctlL8dxcOWno-8" target="wt4KJGDSctlL8dxcOWno-9">
          <mxGeometry relative="1" as="geometry">
            <Array as="points">
              <mxPoint x="1410" y="490" />
              <mxPoint x="1410" y="670" />
              <mxPoint x="1810" y="670" />
              <mxPoint x="1810" y="490" />
            </Array>
          </mxGeometry>
        </mxCell>
        <mxCell id="wt4KJGDSctlL8dxcOWno-8" value="7" style="ellipse;whiteSpace=wrap;html=1;" vertex="1" parent="1">
          <mxGeometry x="1430" y="450" width="120" height="80" as="geometry" />
        </mxCell>
        <mxCell id="wt4KJGDSctlL8dxcOWno-48" style="edgeStyle=orthogonalEdgeStyle;curved=1;rounded=0;orthogonalLoop=1;jettySize=auto;html=1;exitX=0.5;exitY=1;exitDx=0;exitDy=0;entryX=1;entryY=0.5;entryDx=0;entryDy=0;endArrow=none;endFill=0;" edge="1" parent="1" source="wt4KJGDSctlL8dxcOWno-9" target="wt4KJGDSctlL8dxcOWno-10">
          <mxGeometry relative="1" as="geometry" />
        </mxCell>
        <mxCell id="wt4KJGDSctlL8dxcOWno-9" value="5" style="ellipse;whiteSpace=wrap;html=1;" vertex="1" parent="1">
          <mxGeometry x="1670" y="450" width="120" height="80" as="geometry" />
        </mxCell>
        <mxCell id="wt4KJGDSctlL8dxcOWno-49" style="edgeStyle=orthogonalEdgeStyle;curved=1;rounded=0;orthogonalLoop=1;jettySize=auto;html=1;exitX=0;exitY=0.5;exitDx=0;exitDy=0;entryX=0.5;entryY=1;entryDx=0;entryDy=0;endArrow=none;endFill=0;" edge="1" parent="1" source="wt4KJGDSctlL8dxcOWno-10" target="wt4KJGDSctlL8dxcOWno-8">
          <mxGeometry relative="1" as="geometry" />
        </mxCell>
        <mxCell id="wt4KJGDSctlL8dxcOWno-10" value="6" style="ellipse;whiteSpace=wrap;html=1;" vertex="1" parent="1">
          <mxGeometry x="1550" y="530" width="120" height="80" as="geometry" />
        </mxCell>
        <mxCell id="wt4KJGDSctlL8dxcOWno-40" style="edgeStyle=orthogonalEdgeStyle;curved=1;rounded=0;orthogonalLoop=1;jettySize=auto;html=1;exitX=1;exitY=0.5;exitDx=0;exitDy=0;entryX=0.5;entryY=0;entryDx=0;entryDy=0;endArrow=none;endFill=0;" edge="1" parent="1" source="wt4KJGDSctlL8dxcOWno-11" target="wt4KJGDSctlL8dxcOWno-13">
          <mxGeometry relative="1" as="geometry" />
        </mxCell>
        <mxCell id="wt4KJGDSctlL8dxcOWno-57" style="edgeStyle=orthogonalEdgeStyle;curved=1;rounded=0;orthogonalLoop=1;jettySize=auto;html=1;exitX=0.5;exitY=0;exitDx=0;exitDy=0;entryX=0.5;entryY=1;entryDx=0;entryDy=0;endArrow=none;endFill=0;" edge="1" parent="1" source="wt4KJGDSctlL8dxcOWno-11" target="wt4KJGDSctlL8dxcOWno-14">
          <mxGeometry relative="1" as="geometry">
            <Array as="points">
              <mxPoint x="1370" y="160" />
              <mxPoint x="1160" y="160" />
              <mxPoint x="1160" y="440" />
              <mxPoint x="1370" y="440" />
            </Array>
          </mxGeometry>
        </mxCell>
        <mxCell id="wt4KJGDSctlL8dxcOWno-11" value="12" style="ellipse;whiteSpace=wrap;html=1;" vertex="1" parent="1">
          <mxGeometry x="1310" y="180" width="120" height="80" as="geometry" />
        </mxCell>
        <mxCell id="wt4KJGDSctlL8dxcOWno-39" style="edgeStyle=orthogonalEdgeStyle;curved=1;rounded=0;orthogonalLoop=1;jettySize=auto;html=1;exitX=0.5;exitY=0;exitDx=0;exitDy=0;entryX=0;entryY=0.5;entryDx=0;entryDy=0;endArrow=none;endFill=0;" edge="1" parent="1" source="wt4KJGDSctlL8dxcOWno-12" target="wt4KJGDSctlL8dxcOWno-11">
          <mxGeometry relative="1" as="geometry" />
        </mxCell>
        <mxCell id="wt4KJGDSctlL8dxcOWno-51" style="edgeStyle=orthogonalEdgeStyle;curved=1;rounded=0;orthogonalLoop=1;jettySize=auto;html=1;exitX=1;exitY=0.5;exitDx=0;exitDy=0;entryX=0;entryY=0.5;entryDx=0;entryDy=0;endArrow=none;endFill=0;" edge="1" parent="1" source="wt4KJGDSctlL8dxcOWno-12" target="wt4KJGDSctlL8dxcOWno-13">
          <mxGeometry relative="1" as="geometry" />
        </mxCell>
        <mxCell id="wt4KJGDSctlL8dxcOWno-12" value="11" style="ellipse;whiteSpace=wrap;html=1;" vertex="1" parent="1">
          <mxGeometry x="1190" y="260" width="120" height="80" as="geometry" />
        </mxCell>
        <mxCell id="wt4KJGDSctlL8dxcOWno-41" style="edgeStyle=orthogonalEdgeStyle;curved=1;rounded=0;orthogonalLoop=1;jettySize=auto;html=1;exitX=0.5;exitY=1;exitDx=0;exitDy=0;entryX=1;entryY=0.5;entryDx=0;entryDy=0;endArrow=none;endFill=0;" edge="1" parent="1" source="wt4KJGDSctlL8dxcOWno-13" target="wt4KJGDSctlL8dxcOWno-14">
          <mxGeometry relative="1" as="geometry" />
        </mxCell>
        <mxCell id="wt4KJGDSctlL8dxcOWno-13" value="9" style="ellipse;whiteSpace=wrap;html=1;" vertex="1" parent="1">
          <mxGeometry x="1430" y="260" width="120" height="80" as="geometry" />
        </mxCell>
        <mxCell id="wt4KJGDSctlL8dxcOWno-42" style="edgeStyle=orthogonalEdgeStyle;curved=1;rounded=0;orthogonalLoop=1;jettySize=auto;html=1;exitX=0;exitY=0.5;exitDx=0;exitDy=0;entryX=0.5;entryY=1;entryDx=0;entryDy=0;endArrow=none;endFill=0;" edge="1" parent="1" source="wt4KJGDSctlL8dxcOWno-14" target="wt4KJGDSctlL8dxcOWno-12">
          <mxGeometry relative="1" as="geometry" />
        </mxCell>
        <mxCell id="wt4KJGDSctlL8dxcOWno-14" value="10" style="ellipse;whiteSpace=wrap;html=1;" vertex="1" parent="1">
          <mxGeometry x="1310" y="340" width="120" height="80" as="geometry" />
        </mxCell>
        <mxCell id="wt4KJGDSctlL8dxcOWno-62" value="&lt;div&gt;Sendo:&lt;br&gt;n é o número de vértices no grafo&amp;nbsp;&lt;span style=&quot;background-color: initial;&quot;&gt;G.&lt;/span&gt;&lt;/div&gt;&lt;div&gt;k é o número de componentes conexos no grafo&amp;nbsp;&lt;span style=&quot;background-color: initial;&quot;&gt;G.&lt;/span&gt;&lt;/div&gt;&lt;div style=&quot;&quot;&gt;m é o número de arestas no grafo&amp;nbsp;&lt;span style=&quot;background-color: initial;&quot;&gt;G&lt;/span&gt;&lt;/div&gt;&lt;div style=&quot;&quot;&gt;&lt;span style=&quot;background-color: initial;&quot;&gt;&lt;br&gt;&lt;/span&gt;&lt;/div&gt;&lt;div style=&quot;&quot;&gt;&lt;span style=&quot;background-color: initial;&quot;&gt;temos :&lt;/span&gt;&lt;/div&gt;n − k ≤ m ≤ (n − k)(n − k + 1)/2&lt;br&gt;potanto o numero maximo de arestas será (12-3)(12-3+1)/2 = 45" style="text;html=1;align=left;verticalAlign=middle;resizable=0;points=[];autosize=1;strokeColor=none;fillColor=none;" vertex="1" parent="1">
          <mxGeometry x="1430" y="50" width="370" height="130" as="geometry" />
        </mxCell>
      </root>
    </mxGraphModel>
  </diagram>
</mxfile>
